<svg width="960" height="320" viewBox="0 0 960 320" fill="none" xmlns="http://www.w3.org/2000/svg" role="img" aria-labelledby="title desc">
  <title id="title">Dex logo</title>
  <desc id="desc">A sharp terminal cockpit mark for the Dex developer command center.</desc>
  <rect width="960" height="320" rx="34" fill="#07110F"/>
  <path d="M88 78h196c55 0 100 45 100 100v0c0 55-45 100-100 100H88V78Z" fill="#0F2A24" stroke="#25F2A6" stroke-width="6"/>
  <path d="M138 130h130c27 0 48 22 48 48v0c0 27-21 48-48 48H138V130Z" fill="#25F2A6"/>
  <path d="M176 156l40 22-40 22" stroke="#07110F" stroke-width="14" stroke-linecap="round" stroke-linejoin="round"/>
  <path d="M234 204h54" stroke="#07110F" stroke-width="14" stroke-linecap="round"/>
  <text x="430" y="166" fill="#F3FFF9" font-family="Inter, ui-sans-serif, system-ui, -apple-system, BlinkMacSystemFont, 'Segoe UI', sans-serif" font-size="92" font-weight="800" letter-spacing="0">Dex</text>
  <text x="436" y="216" fill="#89B8A6" font-family="Inter, ui-sans-serif, system-ui, -apple-system, BlinkMacSystemFont, 'Segoe UI', sans-serif" font-size="29" font-weight="600" letter-spacing="2">LOCAL DEV COCKPIT</text>
  <path d="M730 96h140M730 138h96M730 180h120M730 222h72" stroke="#25F2A6" stroke-width="10" stroke-linecap="round"/>
  <circle cx="896" cy="96" r="10" fill="#25F2A6"/>
  <circle cx="850" cy="138" r="10" fill="#89B8A6"/>
  <circle cx="874" cy="180" r="10" fill="#25F2A6"/>
  <circle cx="826" cy="222" r="10" fill="#89B8A6"/>
</svg>
